<mxfile host="app.diagrams.net" modified="2024-02-01T07:40:29.418Z" agent="Mozilla/5.0 (Windows NT 10.0; Win64; x64) AppleWebKit/537.36 (KHTML, like Gecko) Chrome/113.0.0.0 Safari/537.36" version="22.1.21" etag="nLEl-6LSV46nyzNAo9Nd" type="github">
  <diagram name="第 1 页" id="BwSSUU-OMJTIasOF8lN_">
    <mxGraphModel>
      <root>
        <mxCell id="0" />
        <mxCell id="1" parent="0" />
      </root>
    </mxGraphModel>
  </diagram>
</mxfile>
